<svg width="86" height="86" viewBox="0 0 86 86" fill="none" xmlns="http://www.w3.org/2000/svg">
<path opacity="0.5" d="M32.25 16.125H28.6667C20.2207 16.125 15.9977 16.125 13.3738 18.7488C10.75 21.3727 10.75 25.5957 10.75 34.0417V51.9583C10.75 60.4042 10.75 64.6272 13.3738 67.2513C15.9977 69.875 20.2207 69.875 28.6667 69.875H32.25" stroke="black" stroke-width="2"/>
<path d="M32.25 23.2071C32.25 14.9876 32.25 10.8779 34.7843 8.63118C37.3186 6.38446 41.1922 7.0601 48.9397 8.41138L57.2846 9.86686C65.8649 11.3634 70.1549 12.1116 72.7026 15.2588C75.25 18.4059 75.25 22.9574 75.25 32.0605V53.9396C75.25 63.0427 75.25 67.5942 72.7026 70.7411C70.1549 73.8883 65.8649 74.6365 57.2846 76.1333L48.9397 77.5885C41.1922 78.9398 37.3186 79.6156 34.7843 77.3688C32.25 75.1221 32.25 71.0123 32.25 62.7929V23.2071Z" stroke="black" stroke-width="2"/>
<path opacity="0.5" d="M43 39.4167V46.5834" stroke="#353535" stroke-width="10" stroke-linecap="round"/>
</svg>
