<svg width="1070" height="498" viewBox="0 0 1070 498" fill="none" xmlns="http://www.w3.org/2000/svg">
<rect width="1070" height="498" fill="white"/>
<path d="M186.925 150.255C189.608 149.92 193.939 141.926 195.316 139.798C197.429 136.533 203.828 137.312 206.677 138.895C212.389 142.068 211.473 154.364 211.325 159.551C211.296 160.578 210.616 165.473 209.905 166.264C209.738 166.449 205.773 168.588 206.032 168.846C206.71 169.524 209.292 168.847 210.421 169.75C211.646 170.729 213.709 170.961 215.069 172.074C217.502 174.065 218.322 180.699 216.876 183.951C214.591 189.093 212.127 192.808 206.032 189.761C203.075 188.282 195.058 185.288 195.058 181.627" stroke="black" stroke-width="3" stroke-linecap="round"/>
<path d="M253.154 175.818C253.154 171.541 248.998 167.668 245.537 165.36C237.593 160.064 236.887 168.453 236.887 175.366C236.887 182.081 235.608 188.207 244.375 187.372C250.839 186.757 256.763 183.709 260.642 178.722C263.556 174.976 259.34 170.201 258.964 176.98C258.349 188.035 255.084 199.627 253.67 210.675C252.906 216.648 251.735 225.46 253.412 231.331C253.985 233.335 253.283 235.385 251.734 232.751C247.698 225.89 242.557 217.507 236.887 211.837" stroke="black" stroke-width="3" stroke-linecap="round"/>
<path d="M271.745 185.113C278.104 184.318 288.513 181.141 291.755 174.656C297.28 163.607 284.203 160.994 275.876 164.779C267.695 168.498 265.861 182.887 270.002 190.342C276.939 202.829 292.845 193.246 303.116 193.246" stroke="black" stroke-width="3" stroke-linecap="round"/>
<path d="M331.002 166.522C327.831 166.126 325.828 163.037 322.288 163.037C314.576 163.037 312.55 183.108 312.412 188.082C311.969 204.032 326.558 187.437 334.488 187.437" stroke="black" stroke-width="3" stroke-linecap="round"/>
<path d="M351.917 163.037C350.856 171.526 346.877 181.987 353.66 190.277C358.658 196.386 365.618 195.292 370.507 189.18C371.966 187.356 376.417 186.028 373.735 183.047C371.772 180.866 372.251 180.019 369.087 179.045C366.031 178.105 361.749 177.138 359.792 180.465C358.75 182.236 357.867 186.786 356.564 187.437" stroke="black" stroke-width="3" stroke-linecap="round"/>
<path d="M439.06 164.198C440.589 163.98 437.456 161.917 436.737 161.875C434.503 161.743 432.876 162.212 430.927 163.295C426.645 165.674 426.039 171.483 426.279 175.818C426.499 179.771 433.231 183.951 436.737 183.951C442.224 183.951 446.119 181.961 450.163 178.141C458.317 170.441 448.614 159.551 445.128 152.579C442.415 147.153 441.662 144.068 447.452 140.702C457.229 135.017 470.048 136.312 480.889 136.312" stroke="black" stroke-width="3" stroke-linecap="round"/>
<path d="M478.566 161.875C479.289 167.664 484.052 180.65 490.701 180.465C498.245 180.256 505.711 176.371 509.937 170.266C511.543 167.948 512.751 159.343 512.197 165.167C511.925 168.014 510.678 192.122 506.968 193.182C503.834 194.077 489.022 194.408 487.861 192.084" stroke="black" stroke-width="3" stroke-linecap="round"/>
<path d="M545.957 167.684C546.132 166.111 548.157 163.753 546.86 162.133C545.85 160.87 544.608 158.616 543.375 160.713C541.138 164.514 536.588 167.144 535.564 171.751C534.679 175.731 534.602 183.188 541.309 180.207C544.63 178.731 550.964 175.17 552.864 171.686C556.224 165.526 553.904 162.727 552.864 170.008C551.971 176.256 551.766 182.209 551.766 188.599C551.766 194.322 551.718 199.056 545.376 199.056C542.285 199.056 536.113 201.445 534.338 197.894" stroke="black" stroke-width="3" stroke-linecap="round"/>
<path d="M569.195 180.465C576.01 177.775 596.876 170.922 598.178 162.456C598.652 159.377 596.174 158.389 593.531 158.389C586.91 158.389 573.843 163.049 573.843 171.428C573.843 176.149 572.875 191.547 580.233 193.182C584.398 194.107 587.798 193.63 592.433 192.084" stroke="black" stroke-width="3" stroke-linecap="round"/>
<path d="M629.615 159.551C629.615 165.863 629.778 173.105 631.938 179.045C633.927 184.514 634.118 190.447 636.07 195.958C636.718 197.787 638.715 205.832 637.748 204.866" stroke="black" stroke-width="3" stroke-linecap="round"/>
<path d="M613.348 158.389C623.082 153.808 636.575 158.395 645.881 153.741" stroke="black" stroke-width="3" stroke-linecap="round"/>
<path d="M468.108 252.504C470.008 252.775 464.623 288.129 464.623 293.171" stroke="black" stroke-width="3" stroke-linecap="round"/>
<path d="M470.432 257.152C474.987 257.152 479.334 268.279 482.051 271.676C486.317 277.007 493.173 264.397 495.284 261.348C497.135 258.674 497.838 254.275 500.061 252.052C500.554 251.559 499.512 261.828 499.48 262.961C499.205 272.877 497.473 281.34 500.642 290.847" stroke="black" stroke-width="3" stroke-linecap="round"/>
<path d="M528.528 271.095C533.006 270.535 529.745 266.226 528.528 264.704C526.107 261.678 522.465 269.722 521.815 271.095C520.501 273.867 518.383 278.288 519.168 281.036C519.909 283.628 524.291 284.858 526.85 283.23C529.953 281.256 535.663 278.976 537.565 275.742C538.725 273.771 540.147 269.581 540.147 273.999C540.147 277.651 541.216 282.167 543.633 285.038C545.63 287.409 550.727 288.769 551.766 290.847" stroke="black" stroke-width="3" stroke-linecap="round"/>
<path d="M559.9 261.799C560.627 261.618 561.788 258.824 562.159 260.121C562.569 261.556 562.223 263.555 562.223 265.027C562.223 269.325 562.722 273.541 564.547 277.421C566.207 280.948 565.991 292.731 569.195 294.333" stroke="black" stroke-width="3" stroke-linecap="round"/>
<path d="M564.547 265.285C572.779 265.285 580.482 262.961 588.367 262.961C589.639 262.961 592.321 260.946 592.433 262.961C592.566 265.355 592.433 267.792 592.433 270.191C592.433 274.045 593.622 284.47 597.081 286.2" stroke="black" stroke-width="3" stroke-linecap="round"/>
<path d="M629.615 261.799C628.275 251.082 613.532 261.953 610.766 265.027C604.594 271.885 608.734 281.037 617.995 281.552C621.722 281.759 623.935 279.124 626.71 276.904C627.905 275.948 629.182 266.531 629.356 266.705C630.47 267.819 638.349 293.131 642.396 285.038" stroke="black" stroke-width="3" stroke-linecap="round"/>
<path d="M678.415 249.018C677.954 253.165 675.861 260.924 679.319 264.381C683.255 268.318 683.998 256.869 684.289 254.828C685.137 248.89 683.063 249.18 683.063 255.086C683.063 255.676 682.029 269.773 684.225 267.028C686.985 263.577 687.71 258.069 687.71 253.666C687.71 246.296 682.361 258.98 681.965 261.154C681.492 263.757 681.901 266.715 681.901 269.352C681.901 273.683 684.225 270.375 684.225 267.609C684.225 266.005 686.569 253.795 682.482 253.795C680.56 253.795 679.706 262.75 679.706 264.188C679.706 265.04 682.361 270.356 682.998 268.125C684.128 264.172 684.87 259.737 684.87 255.602C684.87 244.846 681.125 257.009 680.803 261.348C680.754 262.022 680.152 272.128 681.32 272.128C682.395 272.128 684.759 268.31 685.387 267.609C687.26 265.516 689.351 251.192 684.806 254.828C682.816 256.42 679.756 269.086 683.063 270.837C689.698 274.349 689.777 245.143 683.063 265.285" stroke="black" stroke-width="3" stroke-linecap="round"/>
<path d="M686.548 290.847C686.309 293 682.632 296.097 684.806 298.271C685.759 299.224 687.71 295.648 687.71 294.914C687.71 288.411 684.048 283.854 679.061 290.266C677.765 291.932 673.168 302.535 678.996 301.24C684.212 300.081 692.005 284.358 688.227 288.136C686.395 289.968 684.225 295.171 684.225 297.819C684.225 300.574 685.461 295.591 685.387 294.333C685.059 288.762 678.866 299.586 683.063 302.208C687.592 305.039 691.162 296.825 687.71 293.171C684.475 289.745 678.617 298.577 677.253 301.305" stroke="black" stroke-width="3" stroke-linecap="round"/>
</svg>
